<svg width="46" height="45" viewBox="0 0 46 45" fill="none" xmlns="http://www.w3.org/2000/svg">
<g filter="url(#filter0_d_111_25)">
<path d="M30.207 20.4911L23 15.2679L15.793 20.4911L18.5301 28.9286H27.4448L30.207 20.4911ZM23 0C19.9531 0 17.0402 0.594308 14.2612 1.78292C11.4821 2.97154 9.08817 4.57031 7.07924 6.57924C5.07031 8.58817 3.47154 10.9821 2.28292 13.7612C1.09431 16.5402 0.5 19.4531 0.5 22.5C0.5 25.5469 1.09431 28.4598 2.28292 31.2388C3.47154 34.0179 5.07031 36.4118 7.07924 38.4208C9.08817 40.4297 11.4821 42.0285 14.2612 43.2171C17.0402 44.4057 19.9531 45 23 45C26.0469 45 28.9598 44.4057 31.7388 43.2171C34.5179 42.0285 36.9118 40.4297 38.9208 38.4208C40.9297 36.4118 42.5285 34.0179 43.7171 31.2388C44.9057 28.4598 45.5 25.5469 45.5 22.5C45.5 19.4531 44.9057 16.5402 43.7171 13.7612C42.5285 10.9821 40.9297 8.58817 38.9208 6.57924C36.9118 4.57031 34.5179 2.97154 31.7388 1.78292C28.9598 0.594308 26.0469 0 23 0ZM7.45592 33.9007C4.9615 30.5022 3.71429 26.702 3.71429 22.5V22.4247L6.27567 24.6596L12.3025 19.0346L10.7204 10.9235L7.35547 11.2249C9.86663 7.77623 13.1228 5.41574 17.1239 4.14341L15.793 7.25725L23 11.25L30.207 7.25725L28.8761 4.14341C32.8772 5.41574 36.1334 7.77623 38.6445 11.2249L35.2545 10.9235L33.6975 19.0346L39.7243 24.6596L42.2857 22.4247V22.5C42.2857 26.702 41.0385 30.5022 38.5441 33.9007L37.7907 30.5859L29.6044 31.5904L26.1138 39.0737L29.0268 40.8064C27.0681 41.4593 25.0592 41.7857 23 41.7857C20.9408 41.7857 18.9319 41.4593 16.9732 40.8064L19.8862 39.0737L16.3956 31.5904L8.20926 30.5859L7.45592 33.9007Z" fill="#CDF256"/>
</g>
<defs>
<filter id="filter0_d_111_25" x="-3.5" y="0" width="53" height="53" filterUnits="userSpaceOnUse" color-interpolation-filters="sRGB">
<feFlood flood-opacity="0" result="BackgroundImageFix"/>
<feColorMatrix in="SourceAlpha" type="matrix" values="0 0 0 0 0 0 0 0 0 0 0 0 0 0 0 0 0 0 127 0" result="hardAlpha"/>
<feOffset dy="4"/>
<feGaussianBlur stdDeviation="2"/>
<feComposite in2="hardAlpha" operator="out"/>
<feColorMatrix type="matrix" values="0 0 0 0 0 0 0 0 0 0 0 0 0 0 0 0 0 0 0.25 0"/>
<feBlend mode="normal" in2="BackgroundImageFix" result="effect1_dropShadow_111_25"/>
<feBlend mode="normal" in="SourceGraphic" in2="effect1_dropShadow_111_25" result="shape"/>
</filter>
</defs>
</svg>
