<svg width="54" height="53" viewBox="0 0 54 53" fill="none" xmlns="http://www.w3.org/2000/svg">
<g id="icon" clip-path="url(#clip0_109_24)" filter="url(#filter0_d_109_24)">
<g id="Vector" filter="url(#filter1_d_109_24)">
<path d="M34.207 20.4911L27 15.2679L19.793 20.4911L22.5301 28.9286H31.4448L34.207 20.4911ZM27 0C23.9531 0 21.0402 0.594308 18.2612 1.78292C15.4821 2.97154 13.0882 4.57031 11.0792 6.57924C9.07031 8.58817 7.47154 10.9821 6.28292 13.7612C5.09431 16.5402 4.5 19.4531 4.5 22.5C4.5 25.5469 5.09431 28.4598 6.28292 31.2388C7.47154 34.0179 9.07031 36.4118 11.0792 38.4208C13.0882 40.4297 15.4821 42.0285 18.2612 43.2171C21.0402 44.4057 23.9531 45 27 45C30.0469 45 32.9598 44.4057 35.7388 43.2171C38.5179 42.0285 40.9118 40.4297 42.9208 38.4208C44.9297 36.4118 46.5285 34.0179 47.7171 31.2388C48.9057 28.4598 49.5 25.5469 49.5 22.5C49.5 19.4531 48.9057 16.5402 47.7171 13.7612C46.5285 10.9821 44.9297 8.58817 42.9208 6.57924C40.9118 4.57031 38.5179 2.97154 35.7388 1.78292C32.9598 0.594308 30.0469 0 27 0ZM11.4559 33.9007C8.9615 30.5022 7.71429 26.702 7.71429 22.5V22.4247L10.2757 24.6596L16.3025 19.0346L14.7204 10.9235L11.3555 11.2249C13.8666 7.77623 17.1228 5.41574 21.1239 4.14341L19.793 7.25725L27 11.25L34.207 7.25725L32.8761 4.14341C36.8772 5.41574 40.1334 7.77623 42.6445 11.2249L39.2545 10.9235L37.6975 19.0346L43.7243 24.6596L46.2857 22.4247V22.5C46.2857 26.702 45.0385 30.5022 42.5441 33.9007L41.7907 30.5859L33.6044 31.5904L30.1138 39.0737L33.0268 40.8064C31.0681 41.4593 29.0592 41.7857 27 41.7857C24.9408 41.7857 22.9319 41.4593 20.9732 40.8064L23.8862 39.0737L20.3956 31.5904L12.2093 30.5859L11.4559 33.9007Z" fill="#CDF256"/>
</g>
</g>
<defs>
<filter id="filter0_d_109_24" x="0.5" y="0" width="53" height="53" filterUnits="userSpaceOnUse" color-interpolation-filters="sRGB">
<feFlood flood-opacity="0" result="BackgroundImageFix"/>
<feColorMatrix in="SourceAlpha" type="matrix" values="0 0 0 0 0 0 0 0 0 0 0 0 0 0 0 0 0 0 127 0" result="hardAlpha"/>
<feOffset dy="4"/>
<feGaussianBlur stdDeviation="2"/>
<feComposite in2="hardAlpha" operator="out"/>
<feColorMatrix type="matrix" values="0 0 0 0 0 0 0 0 0 0 0 0 0 0 0 0 0 0 0.25 0"/>
<feBlend mode="normal" in2="BackgroundImageFix" result="effect1_dropShadow_109_24"/>
<feBlend mode="normal" in="SourceGraphic" in2="effect1_dropShadow_109_24" result="shape"/>
</filter>
<filter id="filter1_d_109_24" x="0.5" y="0" width="53" height="53" filterUnits="userSpaceOnUse" color-interpolation-filters="sRGB">
<feFlood flood-opacity="0" result="BackgroundImageFix"/>
<feColorMatrix in="SourceAlpha" type="matrix" values="0 0 0 0 0 0 0 0 0 0 0 0 0 0 0 0 0 0 127 0" result="hardAlpha"/>
<feOffset dy="4"/>
<feGaussianBlur stdDeviation="2"/>
<feComposite in2="hardAlpha" operator="out"/>
<feColorMatrix type="matrix" values="0 0 0 0 0 0 0 0 0 0 0 0 0 0 0 0 0 0 0.25 0"/>
<feBlend mode="normal" in2="BackgroundImageFix" result="effect1_dropShadow_109_24"/>
<feBlend mode="normal" in="SourceGraphic" in2="effect1_dropShadow_109_24" result="shape"/>
</filter>
<clipPath id="clip0_109_24">
<rect width="45" height="45" fill="white" transform="matrix(-1 0 0 1 49.5 0)"/>
</clipPath>
</defs>
</svg>
