<svg width="54" height="55" viewBox="0 0 54 55" fill="none" xmlns="http://www.w3.org/2000/svg">
<g id="top-icon-frame" clip-path="url(#clip0_146_6)">
<path id="top-icon" d="M18.1735 32.6047C18.1735 31.4893 17.4057 30.6489 16.3881 30.6489H3.04002C2.01993 30.6489 1.25296 31.4893 1.25296 32.6047C1.25296 33.6906 2.03005 34.5116 3.06365 34.5116H7.70005V49.5413C7.70005 50.6374 8.53199 51.3959 9.72252 51.3959C10.9173 51.3959 11.7526 50.6374 11.7526 49.5413V34.5116H16.389C17.3888 34.5116 18.1735 33.6738 18.1735 32.6047ZM26.1984 30.2844C20.5217 30.2844 16.8497 34.4669 16.8497 40.9368C16.8497 47.4378 20.5183 51.6389 26.1984 51.6389C31.8473 51.6389 35.4966 47.448 35.4966 40.9646C35.4966 34.4753 31.8507 30.2844 26.1984 30.2844ZM26.1984 47.8023C22.9795 47.8023 20.9807 45.1833 20.9807 40.9646C20.9807 36.729 22.9795 34.0948 26.1984 34.0948C29.3878 34.0948 31.3681 36.6733 31.3681 40.8161C31.3706 45.2559 29.4848 47.8023 26.1984 47.8023ZM45.9 30.6472H40.5202C38.3105 30.6472 37.1883 31.8175 37.1883 34.1277V49.4898C37.1883 50.6306 37.9941 51.395 39.1922 51.395C40.3684 51.395 41.1927 50.6222 41.1927 49.5152V43.5195H45.8063C50.1542 43.5195 52.7512 41.0523 52.7512 36.9146C52.7512 32.9928 50.1896 30.6472 45.9 30.6472ZM48.6489 36.9644C48.6489 38.8451 47.7031 39.7597 45.7532 39.7597H41.1919V34.434H45.7532C47.7031 34.4348 48.6489 35.2617 48.6489 36.9644ZM31.9148 25.4261V16.7304H34.3507C35.7826 16.7304 36.9605 15.3593 37.1005 13.6018L26.1377 0.991943L15.2474 13.5967C15.3891 15.3543 16.5653 16.7296 17.9989 16.7296H20.4348V25.4253L31.9148 25.4261Z" fill="#1E1E1E"/>
</g>
<defs>
<clipPath id="clip0_146_6">
<rect width="54" height="54" fill="white" transform="translate(0 0.5)"/>
</clipPath>
</defs>
</svg>
